<svg id="Layer_1" data-name="Layer 1" xmlns="http://www.w3.org/2000/svg" viewBox="0 0 1000 1000"><defs><style>.cls-1{fill:#fff;}</style></defs><rect width="1000" height="1000" rx="500"/><path class="cls-1" d="M231.35,741.65l-.19-.71c-4.4-.93-7.37-2.73-8.84-5.36-1.55-2.79-1.43-6.58.37-11.24,2.08-5.39,4.25-10.85,6.34-16.13,4.77-12,9.71-24.49,14-36.92,3.63-10.54,7-21.37,10.26-31.84,4.63-14.86,9.41-30.22,15-45,11.23-29.6,34.44-50.29,55.79-66.61-11.71-6.79-13.48-18.7-15.19-30.23-.12-.81-.24-1.61-.37-2.42-1.37-8.95-2-18.14-2.54-27-1-16.26-2.13-33.07-8.06-49.19-5.75-15.63-1.23-31.05,12.74-43.42a41.57,41.57,0,0,0,6.41-8c1-1.49,2.06-3,3.18-4.46.64-.83,1.28-1.82,1.9-2.78,1.6-2.5,3.26-5.08,5.45-5.57,11.28-2.52,14.15-10.75,17.2-19.47.55-1.56,1.11-3.17,1.73-4.76,18.55-47.93,48.18-76.79,90.59-88.2l3.5-.93c20.07-5.35,40.83-10.88,53.43-30.94l.21-.32,3.19,1.81-1,18.69c4.49-1.81,9-3.52,13.28-5.17,10.16-3.89,19.76-7.57,28.94-12.26,15.76-8.06,21.21-21.49,15.75-38.85l-.16-.54L559,174l12.36,13.67c-.41-4-.93-7.82-1.43-11.58-1.24-9.26-2.41-18-1.81-26.71,1-14.46,9.26-25.14,24.57-31.73l.55-.24v.6c.44,21.41,14.21,31.39,28.8,42,1.51,1.1,3,2.2,4.54,3.32,5.14,3.81,9.39,8.69,13.89,13.86,2,2.25,4,4.57,6.09,6.83l17.51-18.72,3.49,1.86-1.53,33.72h22l-.13.51a84.28,84.28,0,0,1-2.65,8.07c-2,5.47-3.88,10.63-2.19,12.83,9,11.72,18.41,19.74,27.33,23.18,9.19,3.55,19.49,4.76,29.44,5.92,5.18.61,10.54,1.24,15.71,2.19,4.73.87,8.93,3.51,12.49,7.84l.45.55-25.75,4c14.3,11.8,23.64,25,27.79,39.13s3.09,29.54-3.17,45.52l18.37,11.06.32,0,.23,0,.13.18c.2.29,0,.48-.24.72l-.23.21-.41-.25c-3.79.24-7.78.17-11.64.1-8.76-.15-17.81-.31-24.82,3.19-47.69,23.82-81.19,60-99.57,107.56s-21.28,99.38-9,158.73a66.1,66.1,0,0,1,1,12.41c0,1.9,0,3.86.16,5.77l.14,2.63-.93-2.47a202,202,0,0,0-68.59-90.85c-30.42-22.34-65.17-33.79-97.89-32.27-3.53,22.6-11.91,29.14-34.32,26.88l-1.67-.17,1.57-.61a39.07,39.07,0,0,1,6-1.62c3.26-.7,6.34-1.36,8.52-3.13,5.17-4.18,11.43-10.37,11.94-16.07.41-4.61-6-13.28-10.68-14.5-15.21-3.92-31-6.71-46.25-9.41-5.41-1-11-2-16.49-3a4.44,4.44,0,0,0-2.26,0q-6.81,2.7-13.65,5.35c-13.8,5.36-28.07,10.92-41.67,17.29-3.7,1.74-6.68,9.49-6.21,14,.2,2,5,3.88,8.93,5.43,1.25.5,2.43,1,3.48,1.44a15.23,15.23,0,0,0,4.94.85c1.2.09,2.56.19,4.17.4l2.14.27-2.09.52c-18.27,4.57-24.31,1.72-28.87-13.91-24.8,16.44-42.3,39.17-52,67.58-8.85,25.86-17,52.46-24.93,78.19-3.37,10.95-6.85,22.28-10.34,33.42l50.79,10.85-3.52.06c-8.95.16-17.79-1-26.36-2.06-3.94-.5-8-1-12-1.41-3.49-.34-7.22.63-10.82,1.56-1.52.39-3.09.8-4.64,1.1l3.64,13.75h.07l.78.15Zm93.52-213.38c-37.93,29-49.5,49.85-55.81,66.47-5.6,14.75-10.38,30.1-15,45-3.26,10.48-6.63,21.32-10.27,31.86-4.29,12.46-9.23,24.91-14,37-2.09,5.28-4.25,10.74-6.34,16.12-1.71,4.43-1.85,8-.41,10.56,1.3,2.34,3.95,4,7.9,4.87l-3.76-14.19.43-.08c1.66-.31,3.36-.75,5-1.17,3.66-1,7.46-1.93,11.1-1.58,4,.38,8.11.9,12.06,1.41a212.62,212.62,0,0,0,22.38,2L233.71,717l.13-.42c3.54-11.27,7.07-22.75,10.48-33.84,7.91-25.73,16.09-52.34,24.93-78.21,9.83-28.76,27.6-51.74,52.8-68.3l.46-.3.15.53c4.26,15,9.49,18.14,25.78,14.42l-1.82-.15a15.46,15.46,0,0,1-5.21-.92c-1-.46-2.2-.92-3.45-1.42-4.51-1.8-9.18-3.65-9.44-6.1-.5-4.87,2.64-12.94,6.67-14.83,13.63-6.39,27.91-11.94,41.73-17.32q6.82-2.65,13.64-5.34a5.18,5.18,0,0,1,2.71,0c5.49,1,11.08,2,16.48,3,15.28,2.7,31.07,5.5,46.31,9.43,5.09,1.31,11.73,10.35,11.29,15.35-.54,6-7,12.35-12.24,16.63-2.33,1.89-5.51,2.57-8.86,3.29-1.37.29-2.77.59-4.11,1,20.52,1.64,28.27-5.07,31.58-26.7l0-.33h.33c33-1.64,68.07,9.88,98.74,32.41a202.86,202.86,0,0,1,68,88.92c0-1.12-.05-2.24-.06-3.34a65.81,65.81,0,0,0-.94-12.25c-12.36-59.51-9.42-111.58,9-159.19s52.09-84.08,100-108c7.19-3.59,16.34-3.42,25.19-3.27,3.45.07,7,.13,10.4,0l-17.94-10.8.13-.32c6.3-15.92,7.4-31.17,3.26-45.32s-13.66-27.45-28.22-39.3l-.71-.57,26.13-4a19.89,19.89,0,0,0-11.55-7c-5.14-.95-10.48-1.58-15.65-2.18-10-1.18-20.35-2.39-29.64-6s-18.5-11.43-27.69-23.43c-2-2.56,0-7.93,2.08-13.61.91-2.49,1.85-5.07,2.5-7.49H665.22l1.55-34.06-2.49-1.32L646.6,185.1l-.29-.31c-2.25-2.37-4.37-4.81-6.41-7.17-4.47-5.13-8.69-10-13.76-13.74-1.5-1.11-3-2.21-4.54-3.31-14-10.13-28.41-20.59-29.11-42-14.66,6.48-22.58,16.84-23.54,30.81-.59,8.61.58,17.32,1.81,26.54.56,4.16,1.13,8.45,1.55,12.84l.12,1.21-13.77-15.23-3.24-.08c5.31,17.53-.33,31.1-16.32,39.28-9.22,4.71-18.84,8.39-29,12.29-4.51,1.73-9.17,3.51-13.85,5.41l-.59.24,1-19.46-2.08-1.19c-12.79,20.06-33.58,25.6-53.7,31l-3.5.93c-42.14,11.34-71.6,40-90.05,87.71-.61,1.58-1.17,3.19-1.72,4.74-3.12,8.93-6.07,17.37-17.79,20-1.86.42-3.43,2.86-4.94,5.21-.63,1-1.28,2-1.94,2.84-1.1,1.42-2.14,2.94-3.15,4.42a42.63,42.63,0,0,1-6.54,8.13c-13.71,12.13-18.15,27.24-12.52,42.53,6,16.23,7.06,33.1,8.11,49.42.57,8.86,1.16,18,2.53,26.95.13.8.25,1.61.37,2.43,1.66,11.22,3.39,22.81,14.46,29.44-11.53-20.7-13.36-43.83-15.14-66.21a192.42,192.42,0,0,0-6.57-37.62c-5.49-19.15.58-34.36,18-45.21l.81-.5-.2.93c-.45,2.08-.78,4.26-1.1,6.36-.71,4.7-1.45,9.55-3.55,13.67-5.72,11.25-7.58,20.33-3,42.24v-.66c0-3.34,0-6.78,0-10.17,0-1.3,0-2.61,0-3.92a54.17,54.17,0,0,1,.63-11,37.68,37.68,0,0,1,6.75-14.71l.67-.95.06,1.16c.52,10.59.26,21.42,0,31.89-.7,29.48-1.42,59.95,15.16,88.45l.2.35-.35.2c-3.86,2.27-7.46,4.39-11,6.51h0l.71,1.23-1.25-.67ZM320.12,379.1c-16.49,10.6-22.17,25.33-16.89,43.79a192.42,192.42,0,0,1,6.61,37.78c1.78,22.5,3.63,45.75,15.35,66.43,3.48-2.07,7-4.11,10.67-6.3-16.48-28.6-15.76-59.06-15.05-88.53.24-10.06.48-20.46,0-30.64a36,36,0,0,0-5.94,13.42,53.87,53.87,0,0,0-.61,10.79c0,1.32,0,2.63,0,3.94-.05,3.38,0,6.82,0,10.15,0,1.48,0,3,0,4.44V448l-.8-3.51c-4.57-20.09-5.33-31.56,2.24-46.46,2-4,2.77-8.8,3.47-13.43C319.48,382.77,319.76,380.91,320.12,379.1Zm271,187.9-41.78-29.17.65-.29c13.58-6.17,22-17.4,30.21-28.26A150.71,150.71,0,0,1,593.68,493c17.17-17.13,15.82-35.79,14.52-53.84a174.12,174.12,0,0,1-.66-18c.3-8.64-4.37-17.5-9.17-25.33l8.44,42.57-3.48,1.46-6.62-6-1,.5,12.82,25.84-12.16-3.35,5.21,8.87-.35.2a137.46,137.46,0,0,1-28,12.54l5.66-1.57c5.41-1.5,11-3.06,16.51-4.43a27.29,27.29,0,0,0,5.2-2.11c.84-.4,1.71-.82,2.6-1.21l.5-.21.07.53c.06.48.13.85.18,1.13.11.57.17.88-.07,1.12a100.44,100.44,0,0,1-8.17,7c-6.2,5-12.61,10.08-12.18,14.26,1.07,10.38-4,15.66-8.86,20.77-1.16,1.22-2.37,2.48-3.44,3.78-14.57,17.56-29.31,21.65-46.4,12.87-3.57-1.84-7.71-2.77-11.71-3.68-1.86-.41-3.78-.85-5.62-1.36-5.71-1.78-11.86-2.05-17.81-2.32-9.48-.42-19.29-.86-27.65-7.33-2.59-2-5.9-5.14-6.87-8.57-12.34-43.67-14.44-79.86-6.62-113.88,10.14-44.12,28.8-60.69,73.94-65.67,24-2.65,48.51-3.88,72.24-5.08l6.45-.32c17.65-.89,26.84,6.47,28.89,23.17q.57,4.57,1.17,9.15c2.92,22.45,5.93,45.66,0,69.14-3.54,14-6,28.48-8.44,42.5-2.51,14.6-5.1,29.7-8.88,44.24-3.4,13.1-9,25.4-14.84,38.42-2.61,5.76-5.3,11.72-7.79,17.76ZM551,538l39.8,27.78c2.45-5.89,5.07-11.69,7.61-17.31,5.87-13,11.42-25.26,14.8-38.29,3.77-14.51,6.36-29.6,8.87-44.18,2.41-14,4.9-28.55,8.44-42.56,5.9-23.33,2.9-46.46,0-68.83-.4-3-.8-6.11-1.17-9.16-2-16.2-10.89-23.34-28-22.46l-6.45.32c-23.72,1.19-48.24,2.43-72.2,5.07-44.71,4.94-63.19,21.35-73.23,65.05-7.79,33.88-5.69,69.94,6.61,113.48.91,3.22,4.09,6.21,6.59,8.15,8.16,6.32,17.83,6.75,27.19,7.16,6,.27,12.2.55,18,2.35,1.81.51,3.72.94,5.56,1.36,4.06.91,8.25,1.86,11.91,3.74,16.69,8.57,31.12,4.55,45.41-12.67,1.09-1.31,2.3-2.59,3.48-3.82,4.75-5,9.67-10.12,8.64-20.13-.48-4.61,5.81-9.64,12.47-15a103.34,103.34,0,0,0,8-6.86c0-.1,0-.29-.08-.47s-.08-.39-.12-.65c-.71.32-1.41.66-2.09,1a27.84,27.84,0,0,1-5.36,2.16c-5.5,1.37-11.08,2.93-16.48,4.43-13.43,3.74-27.31,7.6-41.22,9-20.71,2.07-37.18-2.72-48.93-14.25l-1.34-1.32,1.77.65,3.32,1.23c2.37.87,4.73,1.75,7.11,2.6,34.63,12.3,67.55,9,100.63-10.15l-5.81-9.89,12.34,3.4L594.65,434l2.19-1.11,6.66,6.06,2.38-1-9.16-46.26,1.17,1.86c5.23,8.38,10.79,18.11,10.46,27.68a167.61,167.61,0,0,0,.66,17.94c1.31,18.22,2.67,37.07-14.76,54.46a150.48,150.48,0,0,0-13.39,16.16C572.75,520.54,564.36,531.66,551,538Zm-60-64.8c11.47,10.38,27.21,14.64,46.85,12.67a176.79,176.79,0,0,0,25.07-4.66c-20.74,4.46-41.7,2.82-63.33-4.86-2.38-.85-4.75-1.73-7.12-2.6ZM346.21,517.24l-.15-.26c-10.27-17.49-11.63-37-12.95-55.8-.15-2.07-.29-4.14-.45-6.2-.19-2.56-.43-5.18-.66-7.71-.93-10.31-1.89-21-.29-31.07,1.43-9.05,4.85-17.66,8.46-26.77,1.28-3.22,2.59-6.52,3.82-9.88L330.48,397.2l-3.82.58,0-.43c-.21-2.91-.49-5.87-.76-8.73-.71-7.49-1.44-15.23-1.1-22.81.15-3.44,5.67-8.29,9.44-9.12l7.19-1.58c18.8-4.14,38.23-8.43,57.6-10.45,7.7-.81,16.1,2,23,7.68s11.35,13.45,12.06,21.25c3.84,42.19,5.92,84.24,7.46,119.8l0,.71c.21,4.82.51,11.41-3.31,14.51-2.3,1.86-5.84,2.19-10.52,1l-.41-.11.12-.4c10.26-33,16.81-71.16-11.16-105.73l15.43,29.23-3,2-7.7-5.32,1.54,1.93c7.92,9.94,16.11,20.21,2.84,33.59l5.82,1.58L419.1,480.68l.48.62,9.68-5.8,3.61,1.76-10.6,32.46-.42-.22c-19.2-10.34-37.38-9.3-57.2,3.29l-.13.05ZM346.48,375l-.84,2.4c-1.49,4.23-3.13,8.36-4.71,12.36-3.6,9.07-7,17.64-8.42,26.6-1.59,10-.63,20.6.3,30.86.23,2.54.47,5.16.66,7.73.16,2.06.3,4.13.45,6.2,1.3,18.65,2.65,37.93,12.68,55.19l17.67-4.24c19.93-12.63,38.22-13.75,57.53-3.51l10.08-30.88-2.58-1.26-9.91,5.94-1.34-1.7,11.72-13.88-5.95-1.62.51-.5c13.44-13.11,5.74-22.77-2.42-33-1-1.31-2.12-2.66-3.14-4l-1.53-2,11.48,7.95,1.94-1.27-18.49-35,2.29,2.63c30.9,35.47,24.41,75,13.88,109,4.21,1,7.37.71,9.4-.93,3.51-2.84,3.22-9.2,3-13.84l0-.71c-1.53-35.56-3.62-77.59-7.46-119.77-.69-7.58-5-15.12-11.76-20.7s-14.92-8.28-22.42-7.5c-19.32,2-38.73,6.3-57.5,10.44l-7.19,1.58c-3.67.8-8.69,5.57-8.81,8.36-.34,7.53.39,15.24,1.09,22.7.26,2.73.52,5.54.74,8.31l2.63-.4Z"/><path d="M786,362.12c12.43,7.26,11.62,19.51,12.2,31.46.31,6.33.59,13.11,3,18.8,11.76,28,12.49,57.3,1.48,84.32-11.82,29-29.38,55.71-44.43,83.42l.39.19c7.85-16.45,15-33.26,23.69-49.28,26.22-48.55,36.21-96.33-3.27-144l13.64,10.29,3-1.53-9.51-33.88Z"/><path d="M231.89,743.41c0-.92-.06-1.83-.08-2.75l-.25.23c23.49,3.31,46.88,7.82,70.47,9.68,47.84,3.77,95.78,6.06,143.68,9,23.85,1.49,47.53,1.88,70.46-6.69,6.07-2.26,12.55-3.39,18.85-5-21.21,10.43-43.12,17.57-67,16.23-49.6-2.79-99.28-4.54-148.78-8.53-29.37-2.37-58.46-8.22-87.68-12.5Z"/><path class="cls-1" d="M226.45,715.83c11.76-37.46,26.48-75.78,39.13-112.79,9.66-28.24,29.91-55.54,55.49-72.34,4.5,15.82,11.24,24.66,29.73,20-4.54-.58-7.14-.35-9.23-1.29-4.61-2.06-12.35-4.35-12.64-7.19-.49-4.7,2.61-12.63,6.43-14.42,18-8.46,36.81-15.29,55.35-22.65a4.74,4.74,0,0,1,2.48,0c21,3.92,42.16,7.07,62.77,12.39,4.92,1.27,11.41,10.12,11,14.93-.52,5.86-6.82,12.08-12.08,16.35-3.68,3-9.8,2.91-14.67,4.81,22.3,2.24,30.5-4.44,33.93-26.87,67.81-3.35,139.08,48.46,167.21,123.37-.33-6,.11-12.25-1.11-18.12-11.17-53.82-11-107.38,9-159C668,424.51,702.54,388.49,749,365.3c10.37-5.18,24.69-2.46,37.19-3.37l9.51,33.88-3,1.53L779,387.05c39.48,47.65,29.49,95.43,3.27,144-8.66,16-15.84,32.83-23.69,49.28-5.29,12.21-10.23,24.58-15.93,36.59-12.75,26.89-59.35,47-86.73,37.63-12.16-4.16-3.55-13-3.92-20.29-10.07,11.86-8.92,16.17,1.88,24.85,4.49,3.61,7.77,11,8.25,17,3.59,44.19-7.42,83.65-40.54,115-23.94,22.63-48.44,44.14-79.31,57.85-31.08,13.82-63.37,16.94-96.56,17.68-44.44,1-87.45-4.44-127.6-25.08C289.56,826.8,266.72,806,250,778.57c-2.53-4.17-4.34-8.77-7.63-15.5,20.28,2.27,38.32,4.5,56.41,6.26,26.12,2.56,52.27,4.87,78.42,7.11,31.55,2.71,63.09,6.17,94.7,7.39,12.36.47,24.91-4.26,37.38-6.61-.24-1.27-.47-2.54-.7-3.81-2.38.39-4.91.4-7.13,1.24-18.13,6.86-36.17,5.83-55.26,3.19-30.53-4.23-61.57-4.63-92.31-7.56-37.8-3.61-75.52-8-113.23-12.39-8.46-1-15.13-4.32-9.08-14.8,29.22,4.28,58.31,10.13,87.68,12.5,49.5,4,99.18,5.74,148.78,8.53,23.85,1.34,45.76-5.8,67-16.23-6.3,1.65-12.78,2.78-18.85,5-22.93,8.57-46.61,8.18-70.46,6.69-47.9-3-95.84-5.28-143.68-9-23.59-1.86-47-6.37-70.47-9.68-15.49-5.58-7.2-11.5-8.49-16.4m466.77-271.7c22,13.66,14.26,37.46,21.83,57.31,4.24-30,.37-43.1-20.09-66.21,13.87-12.75,26.62-27.25,42-37.91,20-13.83,39.52-6,47.17,17.17,3.59,10.91,4.94,22.56,7.31,33.87a71.53,71.53,0,0,0,1.06-18.15c-1.18-17.61-7.16-33.08-23.91-41.22-15.37-7.47-28.42,1-40.4,9.4-35.87,25.25-50.75,62.7-59.58,103.7-3.87,18-3,33.93,9.33,49.26,9.14,11.34,6,19.67-6.73,27.65-2.82,1.76-6.1,2.85-8.75,4.81-7.73,5.7-7.82,20.64.17,21.7,12.08,1.6,24.58.12,36.89,0,0-1.47-.1-2.94-.16-4.41H659.54c-3.89-10.25,1.92-13.51,8.74-17.22,18.15-9.86,20.34-20.37,9.12-37.72-3.33-5.16-7.78-10.71-8.3-16.39C666.31,507.91,676.73,480.49,689.84,452.79Zm48.48-25.34c7.08,9.74,15,17.67,19.39,27.22,14.06,30.41,4.33,58.61-10.59,85.78-4.46,8.12-9.43,15.95-14.17,23.91C770.52,525.21,785.16,452.31,738.32,427.45Zm-361.12,172,2,.41c1.76-9.35,4-18.64,5.19-28.07,2.66-20.89-2.87-29.54-22.63-36.71-7.89-2.86-13.39-1-16.4,8.51,3.27.36,5.65,1.08,7.89.78,22.61-3,30.68,5.41,27.1,28C379,581.33,378.25,590.41,377.2,599.44Zm75.24-58.26L450.86,537c-16.15-4.29-33.82,3.67-40.75,17.43ZM705.34,604c16.78-4.79,30.2-13.37,37-29.09Z"/><path class="cls-1" d="M507.65,524.94c-14.83-4.62-31.83.87-45.32-9.58-2.78-2.16-5.83-5.17-6.73-8.36C445,469.62,440.16,431.72,449,393.32c10-43.64,28.66-60.4,73.59-65.36,26.11-2.88,52.42-4.06,78.67-5.4,16.85-.85,26.38,5.86,28.47,22.82,3.18,25.86,7.88,51.6,1.18,78.14-7.22,28.55-9.92,58.25-17.32,86.74-4.93,19-14.63,36.78-22.62,56.12L550.17,537.9c20.7-9.4,29.31-30.13,43.79-44.58,22.92-22.86,13.15-47.76,14-72.12.32-9.34-5-18.87-10.41-27.45q4.41,22.22,8.8,44.43l-2.92,1.23-6.65-6-1.58.8,12.59,25.39-12.25-3.38-23.77-21.32a14.86,14.86,0,0,0-2.53-2.65c-31.35-19.37-83.89-13-109,13.5a13.4,13.4,0,0,0-3.23,8.92c1.65,37,17,58.28,50.56,70.62Zm43.27-172.3c-50.55,1.84-88.65,22.67-88,86.78,2.56-2.86,5.23-6.29,5-9.54-1.92-30.15,16.5-58,45.38-67C524.82,359.24,536.55,356.51,550.92,352.64Z"/><path class="cls-1" d="M332.11,416.26c-1.08.16-4-19.11-5.07-18.94-.78-10.51-2.33-21.05-1.87-31.49.14-3.15,5.47-7.94,9.13-8.74,21.45-4.69,43-9.75,64.74-12,16-1.67,33.16,12.45,34.62,28.57,3.63,39.83,5.74,79.81,7.46,119.78.31,7.27,1.35,19.59-13.29,15.79,11.95-38.42,15.37-75.66-13.68-109q8.52,16.13,17,32.25l-2.47,1.63-9.62-6.67c8.85,11.69,21,22.45,5.52,37.55l.44-.29c-3.93,2.15-8.05,4-11.76,6.52-13.07,8.76-27.73,13-42.53,8.36-11.1-3.49-20.85-11.3-30.65-16.88-2.11,22.58,7.49,42.77,24.76,50.06l-.44-.27-18,4.32C335.08,497.47,334.66,476,333.07,455c-1-12.89-2.95-26.15-1-38.69m20.34,31.45,10.7-4.59c-2.77,11.86-2,22.51,10,25.77,6.67,1.81,16.94,1.4,21.61-2.62,10.46-9,5.64-20.48.14-32.21l23.15,11.23c-20.1-20-45.84-18.74-66.36,1.61l-8.29,3.44c-6-16.72-7.95-34.75,3.76-47.56,10.71-11.71,26.75-18.56,38.16-26-36.73-3.41-61.22,36.07-45.54,82.65C344.42,455.12,348.44,451.42,352.45,447.71Z"/><path class="cls-1" d="M489.29,472.12c13.65,13.4,31.58,15.84,48.6,14.13,19.47-1.95,38.47-8.64,57.65-13.41,2.65-.66,5.1-2.14,7.87-3.34.16,1.24.37,1.77.22,1.92-7.26,7.26-21.12,15.16-20.46,21.57,1.31,12.72-6.77,17.68-12.21,24.25C559.08,531.55,544.53,540,525.05,530c-5.27-2.71-11.57-3.44-17.4-5.07l-.14.31c4.93.37,9.9.49,14.8,1.15,15,2,29,.37,41.14-10.08-20.08,7.56-40.2,9.19-60.87,2.8C479.62,512,471,494.37,465.86,472l15.2,11.15.89-1.43L460.31,455l2.19-1.57L481.08,465Z"/><path class="cls-1" d="M489.29,472.12l-8.21-7.1c-5.62-5.8-11.24-11.6-18.12-18.68l39.67-17.76c-7,26-4.6,37.11,8.66,45.88,11.48,7.58,22.93,7.6,32.4.07,12.65-10.06,14.47-23.59,6.06-46.54l22,6.87,23.77,21.32,5.52,9.38C568.28,484.63,534.9,488.45,499.72,476,496.23,474.71,492.76,473.4,489.29,472.12Z"/><path class="cls-1" d="M424.61,465l5.88,1.6c-4.27,5.07-8.09,9.59-11.92,14.12l.92,1.16,9.79-5.87,3.1,1.51c-3.29,10.06-6.57,20.12-10.34,31.67-21.6-11.63-40-7.89-57.61,3.31l.44.27C352.48,503.27,351,489.09,349,475.48c34.12,14.53,54.58,11.69,76.05-10.82Z"/><path class="cls-1" d="M325.24,528c-12.07-20.85-13.95-44-15.8-67.31a193.92,193.92,0,0,0-6.59-37.7c-5-17.28-.69-33.23,17.86-44.75-1.45,6.69-1.62,14-4.62,19.93-6.28,12.35-7.67,22.19-2.21,46.19,0-4.86-.06-9.73,0-14.6s-.33-10,.61-14.79a37.6,37.6,0,0,1,6.69-14.56c2,40.4-7.32,81.79,15.22,120.52-4.05,2.38-7.8,4.59-11.54,6.81Z"/><path d="M689.84,452.79c-13.11,27.7-23.53,55.12-20.74,85.59.52,5.68,5,11.23,8.3,16.39,11.22,17.35,9,27.86-9.12,37.72-6.82,3.71-12.63,7-8.74,17.22H696c.06,1.47.11,2.94.16,4.41-12.31.17-24.81,1.65-36.89,0-8-1.06-7.9-16-.17-21.7,2.65-2,5.93-3.05,8.75-4.81,12.76-8,15.87-16.31,6.73-27.65-12.36-15.33-13.2-31.31-9.33-49.26,8.83-41,23.71-78.45,59.58-103.7,12-8.43,25-16.87,40.4-9.4,16.75,8.14,22.73,23.61,23.91,41.22A71.53,71.53,0,0,1,788.08,457c-2.37-11.31-3.72-23-7.31-33.87-7.65-23.18-27.17-31-47.17-17.17-15.4,10.66-28.15,25.16-42,37.91C712,467,715.91,480.14,711.67,510.1,704.1,490.25,711.83,466.45,689.84,452.79Z"/><path d="M738.32,427.45c46.84,24.86,32.2,97.76-5.37,136.91,4.74-8,9.71-15.79,14.17-23.91,14.92-27.17,24.65-55.37,10.59-85.78C753.3,445.12,745.4,437.19,738.32,427.45Z"/><path d="M377.2,599.44c1.05-9,1.78-18.11,3.19-27.08,3.58-22.59-4.49-31-27.1-28-2.24.3-4.62-.42-7.89-.78,3-9.46,8.51-11.37,16.4-8.51,19.76,7.17,25.29,15.82,22.63,36.71-1.2,9.43-3.43,18.72-5.19,28.07Z"/><path d="M452.44,541.18,410.11,554.4c6.93-13.76,24.6-21.72,40.75-17.43Z"/><path d="M705.34,604l37-29.09C735.54,590.61,722.12,599.19,705.34,604Z"/><path d="M571.76,434.86l-22-6.87c8.41,22.95,6.59,36.48-6.06,46.54-9.47,7.53-20.92,7.51-32.4-.07-13.26-8.77-15.66-19.87-8.66-45.88L463,446.34c6.88,7.08,12.5,12.88,18.12,18.68L462.5,453.45,460.31,455,482,481.69l-.89,1.43L465.86,472c5.15,22.4,13.76,40,36.72,47.15,20.67,6.39,40.79,4.76,60.87-2.8-12.16,10.45-26.18,12.11-41.14,10.08-4.9-.66-9.87-.78-14.8-1.15C474,512.91,458.6,491.65,457,454.63a13.4,13.4,0,0,1,3.23-8.92c25.16-26.48,77.7-32.87,109.05-13.5A14.86,14.86,0,0,1,571.76,434.86Z"/><path d="M550.92,352.64c-14.37,3.87-26.1,6.6-37.56,10.2-28.88,9.07-47.3,36.89-45.38,67,.21,3.25-2.46,6.68-5,9.54C462.27,375.31,500.37,354.48,550.92,352.64Z"/><path d="M351.71,446.9c20.52-20.35,46.26-21.62,66.36-1.61l-23.15-11.23c5.5,11.73,10.32,23.2-.14,32.21-4.67,4-14.94,4.43-21.61,2.62-12-3.26-12.79-13.91-10-25.77l-10.7,4.59Z"/><path d="M425.05,464.66C403.58,487.17,383.12,490,349,475.48c1.95,13.61,3.48,27.79,15.87,37.24-17.27-7.29-26.87-27.48-24.76-50.06,9.8,5.58,19.55,13.39,30.65,16.88,14.8,4.67,29.46.4,42.53-8.36C417,468.69,421.12,466.81,425.05,464.66Z"/><path d="M352.45,447.71c-4,3.71-8,7.41-12.65,11.67-15.68-46.58,8.81-86.06,45.54-82.65-11.41,7.49-27.45,14.34-38.16,26-11.71,12.81-9.79,30.84-3.76,47.56l8.29-3.44Z"/><path class="cls-1" d="M639.34,650.49c-15.42-92.56-7.68-165.1,23-215.61,25.43-41.83,60.38-59,81.26-69.21l4.43-2.18c7.54-3.77,16.9-3.61,26-3.45,1.55,0,3.12.06,4.69.07l-14.28-8.6.63-1.59c12.5-31.56,4.26-59.41-24.47-82.77l-3.53-2.88,26.62-4.1a17.34,17.34,0,0,0-8.49-4.3c-5.09-.94-10.41-1.56-15.55-2.17-10.11-1.18-20.56-2.41-30-6.07s-19-11.72-28.39-24c-2.49-3.26-.48-8.77,1.84-15.14.65-1.77,1.31-3.57,1.86-5.32H663.53l1.58-34.73-.5-.26-18,19.24-1.48-1.56c-2.26-2.4-4.39-4.85-6.45-7.21-4.41-5.07-8.57-9.86-13.5-13.51-1.5-1.11-3-2.21-4.53-3.3-13.76-10-28-20.27-29.64-40.82-12.7,6.25-19.58,15.81-20.44,28.44-.58,8.45.57,17.08,1.79,26.22.56,4.17,1.14,8.48,1.56,12.89l.59,6.08-16.58-18.34h-.36c4.48,17.34-1.61,30.81-17.74,39-9.3,4.75-19,8.45-29.17,12.36-4.5,1.72-9.16,3.5-13.82,5.4l-2.94,1.19L495,213.57c-13.18,19.4-33.77,24.88-53.69,30.19l-3.5.93c-41.61,11.2-70.71,39.57-89,86.74-.6,1.55-1.16,3.14-1.7,4.68-2.59,7.41-5.25,15-13.23,19l.85,3.91c-3.08.67-7.45,4.95-7.54,6.86-.05,1.26-.08,2.59-.08,4.07v1.78l-1.77.23q-5.06.64-10.1,1.32l-4.73.62,2.84-3.83c.81-1.1,1.61-2.28,2.39-3.42,1-1.52,2.09-3.08,3.25-4.56.59-.76,1.18-1.68,1.81-2.66,1.78-2.77,3.62-5.63,6.46-6.27,10.4-2.32,13-9.78,16-18.42.54-1.57,1.11-3.2,1.74-4.81,18.75-48.45,48.74-77.62,91.69-89.18l3.49-.94c20.69-5.51,40.22-10.71,52.49-30.23l1-1.63,5.39,3.07-.87,17.16c3.7-1.47,7.38-2.88,10.95-4.24,10.12-3.88,19.68-7.54,28.78-12.19,15.18-7.76,20.21-20.18,15-36.93l-.84-2.7,7.66.2,9.45,10.45c-.27-2.22-.56-4.41-.85-6.56-1.25-9.34-2.43-18.17-1.83-27,1-14.9,9.86-26.35,25.55-33.1l2.76-1.19.06,3c.42,20.6,13.88,30.35,28.12,40.67,1.53,1.11,3.05,2.21,4.56,3.33,5.29,3.92,9.59,8.87,14.15,14.1,1.57,1.82,3.2,3.68,4.87,5.51l17.17-18.34,5.49,2.91-1.5,33.06h22.42l-.63,2.51c-.68,2.69-1.71,5.51-2.7,8.23-1.51,4.14-3.58,9.8-2.43,11.3,8.78,11.48,18,19.31,26.63,22.65,9,3.48,19.19,4.67,29.05,5.83,5.21.61,10.59,1.24,15.81,2.2s9.64,3.77,13.44,8.4l2.26,2.74-25.06,3.87c13,11.41,21.63,24.05,25.6,37.61,4.15,14.2,3.24,29.43-2.72,45.29l22.82,13.75-6.43.42c-3.88.26-8,.18-11.89.12-8.95-.16-17.41-.31-24.07,3-1.39.7-2.88,1.43-4.45,2.2-41.17,20.19-137.59,67.47-102.08,280.52Zm-308.89-294c-.73.23-1.5.44-2.3.62-1.22.27-2.73,2.62-3.94,4.51-.65,1-1.32,2-2,3-1,1.29-2,2.71-2.92,4.09l3.82-.49c0-.87,0-1.69.08-2.48C323.3,362.54,326.83,358.65,330.45,356.53Z"/></svg>